<svg xmlns="http://www.w3.org/2000/svg" width="220" height="68" fill="none"><path fill="#fff" d="M69.367 20a4.486 4.486 0 0 0-4.484 4.484v4.149a4.486 4.486 0 0 0 4.484 4.483 4.486 4.486 0 0 0 4.484-4.483v-4.15A4.486 4.486 0 0 0 69.367 20Zm2.772 8.633a2.779 2.779 0 0 1-2.772 2.772 2.779 2.779 0 0 1-2.772-2.772v-3.498h.075a2.792 2.792 0 0 0 2.697 2.12c1.303 0 2.4-.892 2.698-2.12h.074v3.498Zm33.228-3.48a4.486 4.486 0 0 0-4.483 4.484v16.651c0 .95.762 1.712 1.711 1.712.949 0 1.712-.763 1.712-1.712v-8h2.065c1.005 0 1.712-.781 1.712-1.711s-.707-1.712-1.805-1.712h-1.972v-5.228a1.04 1.04 0 0 1 1.042-1.042 1.04 1.04 0 0 1 1.042 1.042c0 .949.762 1.712 1.711 1.712.949 0 1.712-.763 1.712-1.712a4.487 4.487 0 0 0-4.484-4.484h.037Zm13.749 16.633c-.949 0-1.73.763-1.73 1.712 0 .948-.465 1.041-1.042 1.041s-1.06-.502-1.06-1.041v-12.15h2.139a1.72 1.72 0 0 0 1.712-1.71 1.72 1.72 0 0 0-1.712-1.713h-2.121v-1.06c0-.949-.763-1.712-1.711-1.712-.949 0-1.731.763-1.731 1.712v16.651A4.479 4.479 0 0 0 116.363 48c2.511 0 4.483-2.084 4.483-4.484s-.762-1.712-1.711-1.712l-.019-.018ZM83.637 35.59a166.973 166.973 0 0 0-2.68-1.6 1.643 1.643 0 0 1-.78-1.395v-2.94c0-.595.465-1.06 1.041-1.06a1.04 1.04 0 0 1 1.042 1.042c0 .949.763 1.712 1.712 1.712s1.712-.763 1.712-1.712a4.486 4.486 0 0 0-4.484-4.484 4.486 4.486 0 0 0-4.484 4.484v3.219c0 2.083 1.247 3.386 2.102 3.888.317.186 2.196 1.302 2.512 1.488.595.354.912.893.912 1.507v3.777a1.04 1.04 0 0 1-1.042 1.042 1.04 1.04 0 0 1-1.042-1.042c0-.949-.763-1.712-1.712-1.712-.948 0-1.711.763-1.711 1.712A4.486 4.486 0 0 0 81.218 48a4.486 4.486 0 0 0 4.484-4.484V39.46c0-1.73-.893-3.163-2.065-3.87Zm9.452-10.437c-2.586 0-4.689 2.065-4.689 4.596v13.637c0 2.53 2.103 4.595 4.689 4.595s4.688-2.065 4.688-4.595V29.749c0-2.53-2.102-4.596-4.688-4.596Zm1.45 17.973a1.451 1.451 0 0 1-2.901 0V30.028a1.452 1.452 0 0 1 2.902-.001v13.099Zm43.908-17.991c-2.493 0-4.577 2.028-4.577 4.484 0 2.455.707 1.73 1.563 1.73.855 0 1.562-.67 1.562-1.433 0-.762.577-1.34 1.452-1.34.874 0 1.451.633 1.451 1.49v4.818h-1.451c-2.531 0-4.577 2.01-4.577 4.483v4.15c0 2.474 2.046 4.483 4.577 4.483 2.53 0 4.576-2.01 4.576-4.484V29.62c0-2.456-2.065-4.484-4.576-4.484Zm1.432 17.972c0 .8-.651 1.451-1.451 1.451s-1.451-.651-1.451-1.451V39.74c0-.8.651-1.452 1.451-1.452h1.451v4.819Zm-13.656-13.451c0-.596.465-1.08 1.06-1.08.596 0 1.061.484 1.061 1.08 0 .911.781 1.693 1.73 1.693s1.712-.763 1.712-1.712c0-2.456-2.028-4.484-4.503-4.484a4.486 4.486 0 0 0-4.483 4.484v13.88A4.486 4.486 0 0 0 127.283 48c2.475 0 4.503-2.028 4.503-4.484s-.763-1.712-1.712-1.712-1.73.763-1.73 1.694c0 .93-.465 1.079-1.061 1.079-.595 0-1.06-.484-1.06-1.08v-13.84Zm27.145 12.13c-.949 0-1.712.763-1.712 1.712 0 .948-.465 1.041-1.042 1.041a1.04 1.04 0 0 1-1.042-1.041v-12.15h2.121a1.72 1.72 0 0 0 1.712-1.71 1.72 1.72 0 0 0-1.712-1.713h-2.121v-1.06c0-.949-.762-1.712-1.711-1.712-.949 0-1.712.763-1.712 1.712v16.651A4.486 4.486 0 0 0 150.633 48a4.487 4.487 0 0 0 4.484-4.484c0-2.474-.763-1.712-1.712-1.712l-.037-.018Z"/></svg>