<svg xmlns="http://www.w3.org/2000/svg" width="220" height="68" fill="none"><path fill="#fff" d="M65 28.303V38.33l7.716-.008c7.073-.008 7.74-.01 8.049-.054 1.034-.14 1.804-.386 2.48-.79.916-.553 1.672-1.454 2.037-2.43.268-.724.416-1.605.416-2.512.002-2.633-1.381-4.34-4.06-5.013l-.236-.06.346-.128c1.668-.633 2.572-1.62 2.877-3.148.075-.37.102-1.203.056-1.654-.083-.79-.33-1.501-.737-2.112-.667-1-1.818-1.673-3.34-1.955-1.008-.185-.435-.174-8.41-.182L65 18.274v10.029zm13.284-6.456c.478.113.762.257 1.033.53.359.357.504.754.528 1.43.019.466-.013.713-.137 1.037a1.72 1.72 0 0 1-.458.695c-.21.195-.432.321-.751.429-.544.182-.284.171-4.644.182l-3.949.01v-4.375l4.097.011c3.66.008 4.113.014 4.281.051zm.349 7.85c1.11.129 1.783.686 1.997 1.657.073.319.097.836.057 1.182-.148 1.263-.754 1.936-1.987 2.21-.252.056-.306.056-4.523.064l-4.27.01v-5.15h4.243c2.73 0 4.328.011 4.483.027zm47.548-10.415v1.005h4.907v-2.01h-4.907v1.005zm27.141 1.597c-.284.048-.611.246-.818.498a1.398 1.398 0 0 0 .11 1.885 1.33 1.33 0 0 0 1 .402c.397 0 .735-.147 1.016-.447.295-.314.386-.571.367-1.051-.008-.271-.016-.3-.112-.502-.292-.59-.898-.895-1.563-.785zm.788.29c.204.096.453.326.552.506.4.735-.048 1.643-.879 1.78a1.178 1.178 0 0 1-1-.313 1.205 1.205 0 0 1 1.327-1.974z"/><path fill="#fff" d="m153.2 21.488-.182.008v1.525h.295v-.617h.105c.187 0 .388.051.453.119.051.048.069.11.091.281l.029.217h.242l-.014-.228c-.013-.195-.027-.241-.088-.324a.47.47 0 0 0-.156-.132l-.078-.032.067-.018a.416.416 0 0 0 .258-.244c.053-.194-.048-.435-.212-.505-.078-.032-.55-.061-.81-.05zm.617.222c.099.032.139.094.145.22.008.201-.126.287-.448.287h-.201v-.263c0-.145.008-.273.019-.284.027-.024.364.005.485.04zm-58.254.097c-2.802.12-5.043.944-6.24 2.295-.755.852-1.331 2.147-1.417 3.174l-.016.223 2.394.002c2.281.003 2.493.003 2.512-.016.002-.002.037-.136.078-.297a2.81 2.81 0 0 1 .724-1.354c.209-.22.662-.547.788-.571.076-.022.15-.05.222-.086.207-.094.807-.241 1.19-.292.757-.1 1.665-.014 2.277.217 1.228.461 1.941 1.445 2.112 2.906.022.185.041.4.041.475v.142h-2.526c-4.515 0-5.737.075-7.22.44-1.048.257-1.684.584-2.268 1.168-.686.687-1.046 1.47-1.207 2.655a8.58 8.58 0 0 0-.032.79c0 .63.051 1.025.199 1.518.303 1.024 1.037 2.005 1.96 2.622.584.389 1.474.73 2.324.885.863.158 1.32.19 2.818.19 1.241 0 1.775-.024 2.36-.107 1.484-.21 2.621-.697 3.452-1.477a1.71 1.71 0 0 1 .18-.159c.008 0 .013.29.013.644v.643h4.936l-.011-5.169c-.01-5.662 0-5.3-.169-6.145-.439-2.212-1.579-3.638-3.576-4.482-1.113-.472-2.408-.74-3.981-.826a26.61 26.61 0 0 0-1.917-.008zm4.657 10.174c-.011.966-.022 1.033-.207 1.432-.501 1.086-1.863 1.909-3.713 2.25-.544.099-.92.13-1.515.13-.64 0-.909-.04-1.41-.203-.756-.244-1.239-.673-1.437-1.268-.054-.16-.062-.241-.06-.55 0-.26.014-.41.05-.533.224-.823.908-1.343 2.187-1.665 1.155-.292 2.882-.434 5.41-.45l.708-.006-.013.863zm13.843-10.164c-3.641.231-6.038 1.636-6.794 3.987a4.11 4.11 0 0 0-.212 1.4c-.002.506.033.761.161 1.163.437 1.39 1.791 2.335 4.207 2.936.799.201 1.571.34 3.482.633 2.223.34 3.022.533 3.714.887.598.306.855.687.825 1.212-.024.4-.241.737-.648 1.008-.687.459-1.928.654-3.488.552-1.236-.083-2.118-.313-2.695-.705-.305-.209-.59-.547-.71-.847a2.362 2.362 0 0 1-.148-.684v-.123l-2.708-.005-2.707-.008v.075c0 .171.061.616.123.903.603 2.732 3.582 4.349 8.442 4.585 2.743.131 5.207-.276 6.96-1.153 1.499-.75 2.454-1.893 2.754-3.3.123-.566.142-1.33.045-1.816-.257-1.324-1.26-2.316-3.043-3.016-1.126-.44-2.38-.734-4.946-1.158-1.957-.324-2.619-.461-3.252-.67-.585-.196-.973-.453-1.124-.748-.058-.113-.069-.174-.069-.338 0-1.005.949-1.504 2.946-1.547 1.593-.035 2.571.21 3.172.794.314.305.595.911.659 1.423.008.08.025.17.03.193.013.046.158.049 2.576.049h2.561l-.016-.236c-.078-.99-.411-1.974-.909-2.676a6.135 6.135 0 0 0-.917-.97c-1.308-1.057-3.215-1.639-5.898-1.8a32.37 32.37 0 0 0-2.373 0zm12.118 8.239c0 7.716.003 8.271.046 8.28.024.005 1.129.005 2.453 0l2.408-.006V21.788h-4.907v8.268zm13.834-8.239c-3.982.24-6.521 1.958-6.958 4.7a5.782 5.782 0 0 0 0 1.373c.295 1.702 1.684 2.777 4.437 3.44.813.195 1.537.327 3.354.606 1.754.268 2.531.426 3.164.646 1.016.351 1.485.86 1.391 1.504-.096.662-.616 1.102-1.595 1.348-.989.25-2.732.242-3.898-.016-1.381-.308-2.097-.957-2.19-1.984l-.019-.198h-5.408v.078c0 .128.078.683.124.876.461 1.99 2.091 3.365 4.85 4.086 2.163.566 5.11.695 7.391.32 3.298-.542 5.325-1.942 5.864-4.052.131-.504.15-.665.15-1.268 0-.474-.011-.603-.059-.82-.352-1.593-1.743-2.673-4.365-3.386-.933-.255-1.727-.416-3.753-.751-1.574-.263-2.041-.351-2.609-.499-.689-.18-1.156-.386-1.421-.627-.201-.185-.274-.343-.274-.606 0-.831.639-1.306 2.011-1.493.284-.038.536-.049 1.166-.049.856 0 1.137.024 1.609.134 1.212.285 1.762.861 1.987 2.08l.043.24 2.477.002c1.362.003 2.496.003 2.517.003.134 0 .129.01.11-.26-.059-.85-.359-1.82-.753-2.432-1.19-1.842-3.493-2.818-7.089-2.997a27.27 27.27 0 0 0-2.254.002zM91.912 41.81l-2.3.005v.805h1.93v5.349l.367-.006c.204-.002.402-.008.445-.008h.072V42.62h.952c.523 0 .952-.008.952-.022 0-.013.005-.19.008-.4l.005-.377-.067-.01c-.037-.006-1.102-.006-2.364 0zm14.215 3.075v3.07h.805v-3.23l.169-.162a1.572 1.572 0 0 1 1.091-.456c.426 0 .675.132.807.421l.064.142.008 1.641.008 1.644h.831l-.01-1.751c-.008-1.295-.019-1.783-.043-1.882-.094-.365-.306-.646-.595-.794-.244-.12-.429-.16-.789-.16-.386 0-.643.056-.954.217-.201.099-.485.29-.52.348-.057.094-.067-.05-.067-1.045v-1.073h-.805v3.07zm17.561 0v3.07h.831v-6.14h-.831v3.07zm15.086-2.935a.547.547 0 0 0-.368.503.49.49 0 0 0 .512.515c.303 0 .507-.188.528-.477a.514.514 0 0 0-.463-.555.694.694 0 0 0-.209.013zm-36.236 1.426a2.171 2.171 0 0 0-1.426.764c-.177.204-.386.63-.461.933-.083.34-.083.976 0 1.279.121.448.268.726.539 1.019.289.323.672.548 1.096.64.201.049.293.054.649.043.539-.016.762-.086 1.145-.356.158-.113.437-.397.437-.448 0-.024-.26-.273-.448-.432l-.088-.072-.183.185c-.437.442-1.045.523-1.64.22-.306-.156-.598-.577-.684-.984a2.703 2.703 0 0 1 0-.906c.131-.622.587-1.062 1.185-1.145.453-.062.831.064 1.139.383l.183.19.088-.072c.156-.131.448-.415.448-.437a.957.957 0 0 0-.123-.16 2.034 2.034 0 0 0-.912-.585c-.182-.054-.702-.086-.944-.06zm11.538-.003a2.178 2.178 0 0 0-1.18.477l-.134.11-.008-.241-.008-.242h-.828l.005 2.242.008 2.239h.804l.008-1.625.006-1.628.145-.136c.388-.373.906-.54 1.367-.435.263.057.402.161.512.376l.08.158.008 1.643.009 1.644h.828v-1.66c0-1.812-.008-1.946-.156-2.255-.128-.276-.41-.512-.729-.61-.158-.052-.456-.073-.737-.057zm34.398-.011a2.277 2.277 0 0 0-.732.199c-.528.252-.815.764-.732 1.297.051.338.209.582.491.767.225.145.448.225 1.078.389.911.236 1.115.365 1.115.702 0 .344-.255.577-.711.65-.52.082-1.16-.127-1.555-.513l-.136-.131-.217.3-.22.303.099.102c.137.142.493.373.702.456.378.147.486.163 1.046.166.475 0 .542-.005.724-.062.71-.222 1.072-.662 1.072-1.308 0-.748-.434-1.123-1.622-1.405-.686-.16-.954-.282-1.043-.47-.085-.176-.002-.415.191-.565.166-.129.38-.185.691-.182.456 0 .815.134 1.121.413l.177.163.201-.29.198-.289-.056-.062c-.096-.104-.37-.3-.528-.38-.373-.188-.885-.282-1.354-.25zm-52.132.061c-.788.212-1.362.805-1.584 1.636-.054.196-.062.29-.062.67.003.367.014.48.062.657.115.429.407.92.675 1.14.472.385.923.54 1.555.538.647-.002 1.137-.158 1.577-.498.279-.215.276-.186.053-.488a6.361 6.361 0 0 0-.2-.271 1.096 1.096 0 0 0-.178.126 1.823 1.823 0 0 1-1.195.431c-.585 0-1.035-.252-1.3-.726-.081-.145-.207-.52-.207-.62 0-.01.799-.02 1.772-.02h1.775l-.016-.37c-.03-.738-.255-1.29-.695-1.711a2.073 2.073 0 0 0-.758-.456c-.19-.064-.26-.075-.644-.083-.364-.008-.458 0-.63.045zm.888.67c.305.06.622.282.801.564.097.152.204.447.217.603l.011.107-1.338.008c-.77.003-1.35-.005-1.364-.019-.035-.035.075-.413.177-.606.169-.316.52-.587.85-.654.27-.053.372-.053.646-.002zm21.94-.686c-1.027.233-1.7 1.142-1.703 2.3 0 .703.215 1.273.644 1.71.445.454.917.644 1.587.644.914 0 1.611-.434 1.992-1.241.158-.327.23-.67.23-1.08-.002-.76-.198-1.277-.659-1.743-.268-.274-.472-.4-.842-.531-.214-.072-.263-.08-.659-.088-.293-.006-.48.005-.59.03zm.764.716c.681.11 1.131.742 1.131 1.592 0 1.148-.826 1.845-1.818 1.54-.981-.304-1.27-1.974-.479-2.776.305-.308.705-.431 1.166-.356zm8.014-.699c-1.011.25-1.66 1.142-1.66 2.279.003.724.215 1.282.657 1.73.426.43.925.632 1.569.635 1.115.002 1.946-.69 2.187-1.815.054-.252.051-.834-.005-1.105-.177-.863-.783-1.512-1.603-1.724-.285-.072-.85-.072-1.145 0zm1.011.75c.391.138.654.411.815.859.278.767.045 1.7-.523 2.078-.437.29-1.081.284-1.491-.011-.397-.284-.624-.791-.622-1.384 0-.855.435-1.463 1.134-1.595a1.67 1.67 0 0 1 .687.054zm4.788-.75a2.15 2.15 0 0 0-.737.378c-.29.25-.534.662-.655 1.11-.067.25-.072.306-.072.791.003.477.008.544.072.783.108.407.279.713.555.99.175.173.276.251.429.326.283.143.596.214.912.21.501 0 .903-.153 1.252-.47l.174-.16-.011.388c-.01.316-.024.413-.072.542-.118.3-.349.517-.689.638-.121.045-.241.061-.507.07-.603.02-.933-.089-1.292-.43-.158-.15-.206-.182-.222-.152-.014.021-.102.152-.199.292-.096.14-.177.268-.177.287 0 .056.308.316.515.431.394.226.844.306 1.536.271.66-.03 1.059-.18 1.41-.528.231-.23.36-.453.459-.796.059-.212.059-.215.07-2.566l.008-2.351h-.834v.488l-.14-.12a1.973 1.973 0 0 0-.812-.435c-.228-.06-.724-.051-.973.013zm.973.71c.291.063.558.207.769.416l.183.177v1.925l-.18.177c-.579.563-1.426.606-1.938.102-.566-.555-.598-1.812-.059-2.41.319-.354.74-.488 1.225-.386zm8.071-.71a2.156 2.156 0 0 0-1.512 1.344c-.201.514-.222 1.206-.053 1.758a2.149 2.149 0 0 0 1.638 1.494c.281.059.831.059 1.107.002.225-.04.443-.114.646-.22.215-.104.601-.396.601-.453 0-.04-.365-.546-.392-.546a1.12 1.12 0 0 0-.166.134 2.028 2.028 0 0 1-.759.386c-.222.053-.635.056-.839.002-.566-.147-.981-.616-1.078-1.217l-.018-.11h3.547v-.169c-.003-.863-.306-1.606-.826-2.019a2.534 2.534 0 0 0-.829-.396c-.273-.062-.82-.057-1.067.01zm.885.676c.357.078.686.346.855.694.1.212.169.475.142.545-.024.059-2.664.064-2.689.005a.71.71 0 0 1 .027-.21c.201-.79.869-1.206 1.665-1.034zm-5.156 1.74.008 2.117h.805l.008-2.118.005-2.12h-.831l.005 2.12z"/></svg>