<svg xmlns="http://www.w3.org/2000/svg" width="220" height="68" fill="none"><mask id="a" width="21" height="14" x="62" y="34" maskUnits="userSpaceOnUse" style="mask-type:alpha"><path fill="#fff" fill-rule="evenodd" d="M62.423 47.607H82.06V34.661H62.423v12.946z" clip-rule="evenodd"/></mask><g mask="url(#a)"><path fill="#fff" fill-rule="evenodd" d="M77.171 34.661v2.58c0 2.87-2.211 5.205-4.93 5.205-2.718 0-4.93-2.334-4.93-5.204v-2.58h-4.888v2.58c0 5.715 4.404 10.365 9.818 10.365s9.819-4.65 9.819-10.365v-2.58h-4.889z" clip-rule="evenodd"/></g><mask id="b" width="16" height="14" x="57" y="20" maskUnits="userSpaceOnUse" style="mask-type:alpha"><path fill="#fff" fill-rule="evenodd" d="M72.206 20.393H57.5v12.95h14.706v-12.95z" clip-rule="evenodd"/></mask><g mask="url(#b)"><path fill="#fff" fill-rule="evenodd" d="M72.207 28.182h-4.895v-7.79h-4.889v7.79h-4.922v5.16h14.706v-5.16z" clip-rule="evenodd"/></g><path fill="#fff" fill-rule="evenodd" d="M90.504 26.895h-3.54V25.2h8.881v1.694h-3.56v12.763h-1.78V26.895zm10.838 5.039a3.089 3.089 0 0 0-.782-.103c-2.055 0-3.013 1.466-3.013 3.717v4.11h-1.702v-9.376h1.702v1.838c.47-1.177 1.682-1.983 2.974-1.983.293 0 .586.041.821.145v1.652zm8.221 3.036c0-1.796-1.174-3.325-2.993-3.325s-2.993 1.529-2.993 3.325c0 1.797 1.174 3.305 2.993 3.305s2.993-1.508 2.993-3.305zm1.682-4.688v9.377h-1.682v-1.632c-.548 1.074-1.682 1.859-3.208 1.859-2.583 0-4.461-2.272-4.461-4.916 0-2.664 1.898-4.936 4.48-4.936 1.507 0 2.641.785 3.189 1.86v-1.612h1.682zm8.142 3.408c-.117-1.157-.88-2.045-2.367-2.045-1.995 0-2.856 1.57-2.856 3.325 0 1.776.861 3.305 2.895 3.305 1.409 0 2.074-.723 2.348-1.838h1.702c-.235 1.838-1.604 3.449-4.108 3.449-3.052 0-4.539-2.376-4.539-4.916 0-2.54 1.487-4.936 4.519-4.936 2.641 0 3.971 1.797 4.108 3.656h-1.702zm6.478 1.28 4.049 4.689h-2.151l-3.717-4.255v4.255h-1.702V25.202h1.702v9.355l3.717-4.275h2.151l-4.049 4.689zm13.465-4.687v9.376h-1.702v-1.673c-.528 1.136-1.624 1.9-3.169 1.9-1.115 0-2.054-.392-2.641-1.218-.489-.702-.665-1.55-.665-2.85v-5.535h1.702v4.956c0 1.735.587 3.057 2.211 3.057 1.74 0 2.562-1.508 2.562-3.201v-4.812h1.702zm1.707-.001h1.702v1.652c.528-1.136 1.604-1.9 3.149-1.9 1.135 0 2.055.413 2.642 1.24.488.702.684 1.548.684 2.85v5.534h-1.702v-4.977c0-1.735-.606-3.056-2.23-3.056-1.741 0-2.543 1.528-2.543 3.2v4.833h-1.702v-9.376z" clip-rule="evenodd"/><mask id="c" width="106" height="28" x="57" y="20" maskUnits="userSpaceOnUse" style="mask-type:alpha"><path fill="#fff" fill-rule="evenodd" d="M57.5 47.607h105V20.393h-105v27.214z" clip-rule="evenodd"/></mask><g fill="#fff" fill-rule="evenodd" clip-rule="evenodd" mask="url(#c)"><path d="M150.857 39.659h1.682v-9.376h-1.682v9.376zm.841-13.639c-.763 0-1.369.66-1.369 1.466 0 .784.606 1.424 1.369 1.424s1.369-.64 1.369-1.424c0-.806-.606-1.467-1.369-1.467zm8.275 13.638a9.616 9.616 0 0 1-1.545.124c-1.076 0-2.778-.206-2.778-3.284V31.79h-1.643v-1.508h1.643v-3.16h1.702v3.16h2.308v1.508h-2.308v4.316c0 1.817.606 2.045 1.467 2.045.352 0 .9-.042 1.154-.083v1.59zm1.584-12.511c0-.214-.14-.397-.359-.397h-.374v.793h.374c.219 0 .359-.18.359-.396zm-.952-.605h.593c.351 0 .578.28.578.605 0 .26-.143.485-.374.569l.354.605h-.25l-.335-.567h-.347v.567h-.219v-1.779z"/><path d="M161.131 26.247c-.636 0-1.154.546-1.154 1.218 0 .672.518 1.218 1.154 1.218.636 0 1.154-.546 1.154-1.218 0-.672-.518-1.218-1.154-1.218zm0 2.664c-.755 0-1.369-.649-1.369-1.446 0-.797.614-1.446 1.369-1.446s1.37.649 1.37 1.446c0 .797-.615 1.446-1.37 1.446z"/></g></svg>