<?xml version="1.0" encoding="UTF-8"?> <svg xmlns="http://www.w3.org/2000/svg" xmlns:xlink="http://www.w3.org/1999/xlink" width="1080" height="1080" viewBox="0 0 1080 1080"><defs><linearGradient id="b" x1="0" y1="540" x2="1080" y2="540" gradientUnits="userSpaceOnUse"><stop offset="0" stop-color="#e4e3e3"></stop><stop offset="1" stop-color="#fff"></stop></linearGradient></defs><g id="a" data-name="Color"><path d="M323.05,0h433.9c112.33,0,153.07,11.7,194.13,33.66,41.07,21.96,73.3,54.19,95.26,95.26,21.96,41.07,33.66,81.8,33.66,194.13v433.9c0,112.33-11.7,153.07-33.66,194.13-21.96,41.07-54.19,73.3-95.26,95.26-41.07,21.96-81.8,33.66-194.13,33.66H323.05c-112.33,0-153.07-11.7-194.13-33.66-41.07-21.96-73.3-54.19-95.26-95.26C11.7,910.02,0,869.28,0,756.95V323.05c0-112.33,11.7-153.07,33.66-194.13,21.96-41.07,54.19-73.3,95.26-95.26C169.98,11.7,210.72,0,323.05,0Z" style="fill: url(#b); fill-rule: evenodd;"></path></g><g id="c" data-name="Logo"><g><path d="M112.15,407.14c2.21-5.04,2.19-10.55,3.37-15.81,12.32-55.21,58-97.92,114.03-106.43,58.76-8.92,115.69,19.23,143.78,71.09q2.77,5.12-2.28,7.64c-18.77,9.43-37.56,18.81-56.27,28.35-2.55,1.3-3.41,.9-4.75-1.59-13.64-25.32-42.04-39.3-69.82-34.55-28.74,4.91-50.86,27.33-55.47,56.22-4.94,30.96,13.7,62.21,43.44,72.83,30.56,10.9,64.37-1.07,80.33-28.8,2.36-4.1,3.95-4.45,8.02-2.31,18.46,9.69,37.09,19.05,55.77,28.32,2.99,1.49,2.79,2.82,1.45,5.21-21.01,37.57-52.24,62.01-94.51,70.47-48.2,9.65-90.7-3.13-126.05-37.32-22.85-22.1-35.8-49.59-40.05-81.12-.12-.88,.43-2.13-.99-2.55v-29.65Z" style="fill: #010101;"></path><path d="M407.45,421.85c0-69.3,51.47-128.24,120.04-137.49,57.91-7.81,114.58,21.33,141.89,72.82,1.74,3.29,1.01,4.57-2.05,6.08-18.96,9.36-37.89,18.79-56.71,28.43-3.1,1.59-4.09,.96-5.67-1.89-13.05-23.55-39.29-37.47-64.51-34.5-29.04,3.43-50.89,21.66-58.68,48.94-11.08,38.84,16.11,79.51,56.26,84.12,27.69,3.18,53.21-9.68,66.81-33.94,1.55-2.77,2.6-2.82,5.16-1.51,19.19,9.86,38.44,19.62,57.75,29.25,2.66,1.32,2.86,2.38,1.47,4.8-28.34,49.16-70.74,74.88-127.61,73.51-65.23-1.57-118.55-47.72-131.62-111.81-1.8-8.83-2.55-17.8-2.52-26.82Z" style="fill: #010101;"></path><path d="M687.43,283.18h4.44c24.13,0,48.26,.06,72.39-.08,2.87-.02,4.35,.8,5.64,3.38,31.92,63.84,63.92,127.64,95.89,191.45,.87,1.73,2.05,3.26,.85,5.59-13.17,25.62-26.21,51.31-39.54,77.48-46.6-92.71-92.98-184.97-139.66-277.84Z" style="fill: #010101;"></path><path d="M705.39,678.4c15.46-16.01,33.39-20.26,53.14-13.05,20.28,7.4,31.46,23.2,34.91,44.21,2.93,17.88-.94,34.28-12.46,48.65-19.12,23.85-55,25.95-75,3.48-1.16,1.07-.55,2.44-.56,3.63-.05,17.29-.15,34.58,.06,51.87,.04,3.57-1.08,4.35-4.37,4.2-5.66-.25-11.34-.18-17-.02-2.44,.07-3.28-.6-3.2-3.13,.18-6.1,.06-12.2,.06-18.31,0-43.73,.05-87.47-.09-131.2-.01-3.71,1-4.65,4.57-4.45,5.65,.32,11.34,.17,17,.04,2.22-.05,3.13,.51,3,2.89-.19,3.45-.05,6.92-.05,11.19Zm-1.88,41.4c.01,14.86,7.73,27.6,19.75,32.63,19.46,8.14,40.54-2.92,45.03-23.63,3.88-17.91-3.99-35.35-18.82-41.71-22.72-9.75-45.98,6.8-45.96,32.72Z" style="fill: #0495fe;"></path><path d="M338.69,615.38c20.13,.01,35.47,5.61,47.67,18.83,1.7,1.84,2.45,2.92,.08,5.01-4.68,4.13-9.07,8.59-13.37,13.12-1.91,2.01-2.87,1.76-4.72-.15-10.96-11.42-24.19-15.18-39.33-10.27-10.89,3.54-15.4,12.7-11.83,22.53,1.7,4.67,5.33,7.48,9.44,9.83,8.36,4.79,17.56,7.58,26.51,10.95,8.89,3.34,17.24,7.5,24.8,13.36,21.12,16.35,21.64,57.42-8.9,72.98-23.14,11.79-58.8,6.5-77.15-11.95q-9.05-9.11,.59-16.89c2.94-2.37,6.04-4.56,8.85-7.07,2.38-2.14,3.64-2.25,5.83,.65,10.43,13.77,24.46,19.1,41.42,16.15,8.36-1.45,15.25-5.56,17.31-14.43,2.11-9.09-1.81-16.1-9.15-21.43-6.46-4.69-14.03-6.87-21.38-9.56-7.76-2.84-15.66-5.35-22.84-9.56-20.16-11.82-24.35-26.51-22.2-45.25,1.94-16.96,15.59-30.47,33.95-34.93,5.54-1.34,11.15-1.96,14.39-1.91Z" style="fill: #0495fe;"></path><path d="M441.79,676.97c6.04-6.66,12.85-11.58,21.53-13.45,28.58-6.17,52.5,8.97,53.93,40.57,1.03,22.77,.33,45.61,.48,68.42,.01,2.23-.92,2.65-2.87,2.62-5.81-.09-11.64-.25-17.44,.05-3.56,.18-4.66-.76-4.62-4.48,.2-19.18,.12-38.36,.07-57.55,0-2.9-.05-5.85-.59-8.68-1.74-9.15-6.15-16.53-15.69-19.03-10.25-2.68-19.35,.02-26.45,8.04-6.4,7.24-8.31,16.12-8.34,25.5-.05,17.29-.11,34.59,.07,51.88,.04,3.43-.86,4.51-4.32,4.32-5.36-.3-10.77-.33-16.13,0-3.73,.23-4.52-1.01-4.51-4.59,.13-43.89,.08-87.77,.08-131.66,0-8.43,.13-16.86-.07-25.28-.08-3.25,.58-4.68,4.24-4.46,5.5,.34,11.05,.29,16.57,.01,3.28-.16,4.16,.82,4.13,4.11-.16,19.62-.08,39.24-.08,58.85v4.79Z" style="fill: #0495fe;"></path><path d="M540.5,719.84c-.01-32.68,25.23-57.77,58.06-57.72,32.9,.05,57.99,25.06,57.97,57.8-.01,32.66-25.18,57.46-58.28,57.43-32.68-.03-57.75-24.99-57.76-57.51Zm57.83-34.81c-18.86,.11-33.14,15-33.22,34.63-.08,19.71,14.54,35.02,33.42,35.01,18.78,0,33.57-15.71,33.16-35.21-.42-20.03-14.48-34.54-33.36-34.43Z" style="fill: #0495fe;"></path><path d="M933.73,345.23c-18.8-.01-33.78-14.98-33.79-33.76,0-18.67,15.05-33.77,33.79-33.88,18.71-.12,34.27,15.43,34.12,34.1-.15,18.71-15.26,33.55-34.12,33.54Z" style="fill: #0495fe;"></path></g></g></svg> 