<svg xmlns="http://www.w3.org/2000/svg" width="116" height="116" fill="none"><g filter="url(#a)"><path fill="url(#b)" d="M13 57c0-24.853 20.147-45 45-45s45 20.147 45 45-20.147 45-45 45-45-20.147-45-45Z"/><path stroke="url(#c)" d="M13 57c0-24.853 20.147-45 45-45s45 20.147 45 45-20.147 45-45 45-45-20.147-45-45Z"/><g filter="url(#d)"><path fill="#CBCBCB" d="M44.435 62.084c-2.744 0-4.634-2.002-4.634-4.984s1.848-4.984 4.76-4.984c2.268 0 3.92 1.344 4.214 3.416H47.11c-.294-1.246-1.232-2.002-2.59-2.002-1.862 0-3.066 1.47-3.066 3.57 0 2.1 1.176 3.57 3.052 3.57 1.512 0 2.73-.854 2.814-2.436v-.238h-2.716v-1.358h4.256V62h-1.246l-.14-1.316c-.476.7-1.484 1.4-3.038 1.4ZM53.984 62h-3.332v-9.8h3.332c3.066 0 4.998 1.974 4.998 4.886S57.05 62 53.984 62Zm-1.722-8.4v7h1.722c2.156 0 3.346-1.414 3.346-3.514 0-2.1-1.19-3.486-3.346-3.486h-1.722ZM60.4 62v-9.8h3.864c2.044 0 3.388 1.218 3.388 3.122 0 1.89-1.344 3.122-3.388 3.122H62.01V62H60.4Zm3.738-8.4H62.01v3.444h2.114c1.148 0 1.89-.672 1.89-1.722 0-1.064-.728-1.722-1.876-1.722ZM68.89 62v-9.8h3.864c2.044 0 3.416 1.218 3.416 3.122 0 1.316-.756 2.366-1.904 2.772L76.338 62h-1.792l-1.89-3.556H70.5V62h-1.61Zm3.738-8.4H70.5v3.444h2.128c1.148 0 1.89-.672 1.89-1.722 0-1.05-.742-1.722-1.89-1.722Z"/></g><g fill="#CBCBCB" filter="url(#e)"><path d="m54.853 91.32 2.265-1.617-.835-2.654 2.24 1.65 2.265-1.618-.88 2.64 2.233 1.658-2.783-.02-.88 2.641-.842-2.66-2.783-.02Zm-16.42-6.355 2.77-.266.602-2.718 1.113 2.55 2.77-.265-2.084 1.844 1.113 2.557-2.4-1.418-2.085 1.852.602-2.719-2.401-1.417ZM27.385 71.257l2.537 1.152 1.877-2.058-.31 2.77 2.53 1.152-2.725.556-.317 2.77-1.372-2.427-2.725.557 1.877-2.052-1.372-2.42ZM24.68 53.853l1.617 2.265 2.654-.835-1.657 2.24 1.618 2.265-2.64-.88-1.657 2.233.026-2.783-2.641-.88 2.654-.842.026-2.783Zm6.349-16.42.272 2.77 2.718.602-2.557 1.113.272 2.77-1.844-2.084-2.557 1.113 1.411-2.4-1.845-2.085 2.719.602 1.41-2.401Zm13.714-11.048-1.152 2.537 2.052 1.877-2.764-.31-1.152 2.53-.556-2.725-2.77-.317 2.427-1.372-.557-2.725 2.052 1.877 2.42-1.372ZM62.14 23.68l-2.265 1.617.842 2.654-2.24-1.657-2.265 1.618.88-2.64-2.24-1.657 2.784.026.887-2.641.835 2.654 2.783.026Zm16.427 6.349-2.77.272-.602 2.718-1.113-2.557-2.77.272 2.084-1.844-1.113-2.557 2.4 1.411 2.085-1.845-.602 2.719 2.401 1.41Zm11.042 13.714-2.531-1.152-1.883 2.052.317-2.764-2.537-1.152 2.73-.556.312-2.77 1.372 2.427 2.731-.557-1.883 2.052 1.372 2.42ZM92.32 61.14l-1.617-2.265-2.654.842 1.65-2.24-1.618-2.265 2.64.88 1.658-2.24-.02 2.784 2.641.887-2.66.835-.02 2.783Zm-6.355 16.427-.266-2.77-2.718-.602 2.55-1.113-.265-2.77 1.844 2.084 2.557-1.113-1.418 2.4 1.852 2.085-2.719-.602-1.417 2.401ZM72.257 88.609l1.152-2.531-2.058-1.883 2.77.317 1.152-2.537.556 2.73 2.77.312-2.427 1.372.557 2.731-2.052-1.883-2.42 1.372Z"/></g></g><defs><filter id="a" width="115" height="115" x=".5" y=".5" color-interpolation-filters="sRGB" filterUnits="userSpaceOnUse"><feFlood flood-opacity="0" result="BackgroundImageFix"/><feColorMatrix in="SourceAlpha" result="hardAlpha" values="0 0 0 0 0 0 0 0 0 0 0 0 0 0 0 0 0 0 127 0"/><feOffset dy="3"/><feGaussianBlur stdDeviation="2"/><feColorMatrix values="0 0 0 0 0 0 0 0 0 0 0 0 0 0 0 0 0 0 0.01 0"/><feBlend in2="BackgroundImageFix" result="effect1_dropShadow_31_170"/><feColorMatrix in="SourceAlpha" result="hardAlpha" values="0 0 0 0 0 0 0 0 0 0 0 0 0 0 0 0 0 0 127 0"/><feOffset dy="1"/><feGaussianBlur stdDeviation="6"/><feColorMatrix values="0 0 0 0 0 0 0 0 0 0 0 0 0 0 0 0 0 0 0.02 0"/><feBlend in2="effect1_dropShadow_31_170" result="effect2_dropShadow_31_170"/><feBlend in="SourceGraphic" in2="effect2_dropShadow_31_170" result="shape"/><feColorMatrix in="SourceAlpha" result="hardAlpha" values="0 0 0 0 0 0 0 0 0 0 0 0 0 0 0 0 0 0 127 0"/><feOffset dy="5"/><feGaussianBlur stdDeviation="5.5"/><feComposite in2="hardAlpha" k2="-1" k3="1" operator="arithmetic"/><feColorMatrix values="0 0 0 0 0.958789 0 0 0 0 0.958789 0 0 0 0 0.958789 0 0 0 1 0"/><feBlend in2="shape" result="effect3_innerShadow_31_170"/></filter><filter id="d" width="36.537" height="13.968" x="39.801" y="52.116" color-interpolation-filters="sRGB" filterUnits="userSpaceOnUse"><feFlood flood-opacity="0" result="BackgroundImageFix"/><feBlend in="SourceGraphic" in2="BackgroundImageFix" result="shape"/><feColorMatrix in="SourceAlpha" result="hardAlpha" values="0 0 0 0 0 0 0 0 0 0 0 0 0 0 0 0 0 0 127 0"/><feOffset dy="4"/><feGaussianBlur stdDeviation="2"/><feComposite in2="hardAlpha" k2="-1" k3="1" operator="arithmetic"/><feColorMatrix values="0 0 0 0 0 0 0 0 0 0 0 0 0 0 0 0 0 0 0.07 0"/><feBlend in2="shape" result="effect1_innerShadow_31_170"/></filter><filter id="e" width="73" height="77" x="22" y="21" color-interpolation-filters="sRGB" filterUnits="userSpaceOnUse"><feFlood flood-opacity="0" result="BackgroundImageFix"/><feBlend in="SourceGraphic" in2="BackgroundImageFix" result="shape"/><feColorMatrix in="SourceAlpha" result="hardAlpha" values="0 0 0 0 0 0 0 0 0 0 0 0 0 0 0 0 0 0 127 0"/><feOffset dy="4"/><feGaussianBlur stdDeviation="2"/><feComposite in2="hardAlpha" k2="-1" k3="1" operator="arithmetic"/><feColorMatrix values="0 0 0 0 0 0 0 0 0 0 0 0 0 0 0 0 0 0 0.07 0"/><feBlend in2="shape" result="effect1_innerShadow_31_170"/></filter><linearGradient id="b" x1="65" x2="45.5" y1="-20" y2="102" gradientUnits="userSpaceOnUse"><stop stop-color="#E1E1E1" stop-opacity="0"/><stop offset="1" stop-color="#F1F1F1" stop-opacity=".72"/></linearGradient><linearGradient id="c" x1="59" x2="58" y1="9.5" y2="102" gradientUnits="userSpaceOnUse"><stop stop-color="#E9E9E9" stop-opacity="0"/><stop offset="1" stop-color="#ECECEC"/></linearGradient></defs></svg>