<svg xmlns="http://www.w3.org/2000/svg" width="116" height="116" fill="none"><g filter="url(#a)"><path fill="url(#b)" d="M13 57c0-24.853 20.147-45 45-45s45 20.147 45 45-20.147 45-45 45-45-20.147-45-45Z"/><path stroke="url(#c)" d="M13 57c0-24.853 20.147-45 45-45s45 20.147 45 45-20.147 45-45 45-45-20.147-45-45Z"/><g filter="url(#d)"><path stroke="#CBCBCB" d="m66.904 65.625 3.465 4.315s.68 1.032.595 1.376c-.03.117-.116.215-.19.299-.145.162-.246.276.197.389.161.041.333.063.49.082.493.062.828.104.182.692-.386.352-.756.401-1.043.44-.344.046-.571.076-.571.591 0 .468.104.705.188.897.087.197.153.347.067.651-.072.255-.129.356-.183.452-.074.132-.144.256-.242.752-.17.86-.17.946-.17 1.547V80h-8.923s-.935-1.376-.595-1.806c.133-.168.191-.218.197-.273.008-.085-.11-.183-.271-.759a2.653 2.653 0 0 1-.106-.718c-.008-.283-.01-.382-.5-.657-.32-.18-.626-.225-.91-.266-.394-.057-.748-.108-1.044-.508-.51-.688-.935-1.118-.935-1.118l-.05-.21c-.17-.71-.423-1.767-.885-1.767-.195 0-.278-.013-.349-.024-.115-.017-.198-.03-.67.024-.252.028-.476.14-.681.244-.42.212-.762.384-1.104-.283-.186-.361-.304-.694-.404-.975-.174-.49-.292-.823-.616-.878-.204-.034-.367 0-.543.037a1.876 1.876 0 0 1-1.072-.037c-.382-.116-.66.127-.875.314-.263.23-.429.374-.57-.328-.158-.796-.086-1.33-.03-1.745.035-.249.063-.455.03-.648-.03-.187.003-.408.038-.642m5.147-17.156 1.614-13.413-7.053-.946s-3.994-.602-4.504-.774l-.266-.091c-.63-.217-1.736-.597-2.028-.597-.196 0-.166.2-.105.602a7.6 7.6 0 0 1 .105 1.204c0 .744-.032.93-.077 1.186-.028.158-.06.344-.093.705-.085.946-.255 1.462-.68 1.978-.141.172-.236.267-.311.344-.151.153-.227.229-.453.688-.286.578-.032.852.605 1.538.12.13.255.275.402.44.558.623.477.744.325.97-.099.148-.228.34-.228.749 0 .378-.012.606-.022.812-.018.353-.032.638.022 1.51.044.715-.027.802-.07.855-.038.048-.053.066.07.52.255.946.85 2.15.85 2.15"/></g><g filter="url(#e)"><path fill="#CBCBCB" d="M42.441 63.084c-2.856 0-4.634-1.974-4.634-4.984 0-2.982 1.834-4.984 4.732-4.984 2.24 0 3.85 1.344 4.172 3.416h-1.666C44.723 55.3 43.8 54.53 42.47 54.53c-1.862 0-3.01 1.47-3.01 3.57 0 2.086 1.12 3.57 2.968 3.57 1.358 0 2.296-.756 2.604-2.002h1.666c-.308 2.072-1.974 3.416-4.256 3.416Zm9.72 0c-2.855 0-4.633-1.974-4.633-4.984 0-2.982 1.834-4.984 4.732-4.984 2.24 0 3.85 1.344 4.172 3.416h-1.666c-.322-1.232-1.246-2.002-2.576-2.002-1.862 0-3.01 1.47-3.01 3.57 0 2.086 1.12 3.57 2.968 3.57 1.358 0 2.296-.756 2.604-2.002h1.666c-.308 2.072-1.974 3.416-4.256 3.416ZM57.75 63v-9.8h3.864c2.044 0 3.388 1.218 3.388 3.122 0 1.89-1.344 3.122-3.388 3.122H59.36V63h-1.61Zm3.738-8.4H59.36v3.444h2.114c1.148 0 1.89-.672 1.89-1.722 0-1.064-.727-1.722-1.876-1.722Zm4.541 8.4h-1.666l3.668-9.8h1.918l3.654 9.8H71.88l-.924-2.422h-4.018L66.028 63Zm2.912-8.064-1.554 4.27h3.122l-1.568-4.27Z"/></g><circle cx="58" cy="57" r="35.5" stroke="#CBCBCB"/></g><defs><filter id="a" width="115" height="115" x=".5" y=".5" color-interpolation-filters="sRGB" filterUnits="userSpaceOnUse"><feFlood flood-opacity="0" result="BackgroundImageFix"/><feColorMatrix in="SourceAlpha" result="hardAlpha" values="0 0 0 0 0 0 0 0 0 0 0 0 0 0 0 0 0 0 127 0"/><feOffset dy="3"/><feGaussianBlur stdDeviation="2"/><feColorMatrix values="0 0 0 0 0 0 0 0 0 0 0 0 0 0 0 0 0 0 0.01 0"/><feBlend in2="BackgroundImageFix" result="effect1_dropShadow_31_312"/><feColorMatrix in="SourceAlpha" result="hardAlpha" values="0 0 0 0 0 0 0 0 0 0 0 0 0 0 0 0 0 0 127 0"/><feOffset dy="1"/><feGaussianBlur stdDeviation="6"/><feColorMatrix values="0 0 0 0 0 0 0 0 0 0 0 0 0 0 0 0 0 0 0.02 0"/><feBlend in2="effect1_dropShadow_31_312" result="effect2_dropShadow_31_312"/><feBlend in="SourceGraphic" in2="effect2_dropShadow_31_312" result="shape"/><feColorMatrix in="SourceAlpha" result="hardAlpha" values="0 0 0 0 0 0 0 0 0 0 0 0 0 0 0 0 0 0 127 0"/><feOffset dy="5"/><feGaussianBlur stdDeviation="5.5"/><feComposite in2="hardAlpha" k2="-1" k3="1" operator="arithmetic"/><feColorMatrix values="0 0 0 0 0.958789 0 0 0 0 0.958789 0 0 0 0 0.958789 0 0 0 1 0"/><feBlend in2="shape" result="effect3_innerShadow_31_312"/></filter><filter id="d" width="33.001" height="49.424" x="39.5" y="33.5" color-interpolation-filters="sRGB" filterUnits="userSpaceOnUse"><feFlood flood-opacity="0" result="BackgroundImageFix"/><feBlend in="SourceGraphic" in2="BackgroundImageFix" result="shape"/><feColorMatrix in="SourceAlpha" result="hardAlpha" values="0 0 0 0 0 0 0 0 0 0 0 0 0 0 0 0 0 0 127 0"/><feOffset dy="2.424"/><feGaussianBlur stdDeviation="1.212"/><feComposite in2="hardAlpha" k2="-1" k3="1" operator="arithmetic"/><feColorMatrix values="0 0 0 0 0 0 0 0 0 0 0 0 0 0 0 0 0 0 0.07 0"/><feBlend in2="shape" result="effect1_innerShadow_31_312"/></filter><filter id="e" width="35.795" height="13.968" x="37.807" y="53.116" color-interpolation-filters="sRGB" filterUnits="userSpaceOnUse"><feFlood flood-opacity="0" result="BackgroundImageFix"/><feBlend in="SourceGraphic" in2="BackgroundImageFix" result="shape"/><feColorMatrix in="SourceAlpha" result="hardAlpha" values="0 0 0 0 0 0 0 0 0 0 0 0 0 0 0 0 0 0 127 0"/><feOffset dy="4"/><feGaussianBlur stdDeviation="2"/><feComposite in2="hardAlpha" k2="-1" k3="1" operator="arithmetic"/><feColorMatrix values="0 0 0 0 0 0 0 0 0 0 0 0 0 0 0 0 0 0 0.07 0"/><feBlend in2="shape" result="effect1_innerShadow_31_312"/></filter><linearGradient id="b" x1="65" x2="45.5" y1="-20" y2="102" gradientUnits="userSpaceOnUse"><stop stop-color="#E1E1E1" stop-opacity="0"/><stop offset="1" stop-color="#F1F1F1" stop-opacity=".72"/></linearGradient><linearGradient id="c" x1="59" x2="58" y1="9.5" y2="102" gradientUnits="userSpaceOnUse"><stop stop-color="#E9E9E9" stop-opacity="0"/><stop offset="1" stop-color="#ECECEC"/></linearGradient></defs></svg>