<svg xmlns="http://www.w3.org/2000/svg" width="116" height="116" fill="none"><g filter="url(#a)"><rect width="90" height="90" x="13" y="12" fill="url(#b)" rx="45"/><rect width="90" height="90" x="13" y="12" stroke="url(#c)" rx="45"/><g filter="url(#d)"><path fill="#CBCBCB" d="M39.995 47h-1.666l3.668-9.8h1.918l3.654 9.8h-1.722l-.924-2.422h-4.018L39.995 47Zm2.912-8.064-1.554 4.27h3.122l-1.568-4.27ZM48.574 47v-9.8h1.61V47h-1.61Zm7.66.084c-2.856 0-4.634-1.974-4.634-4.984 0-2.982 1.834-4.984 4.732-4.984 2.24 0 3.85 1.344 4.172 3.416h-1.666c-.322-1.232-1.246-2.002-2.576-2.002-1.862 0-3.01 1.47-3.01 3.57 0 2.086 1.12 3.57 2.968 3.57 1.358 0 2.296-.756 2.604-2.002h1.666c-.308 2.072-1.974 3.416-4.256 3.416ZM61.822 47v-9.8h3.864c2.044 0 3.388 1.218 3.388 3.122 0 1.89-1.344 3.122-3.388 3.122h-2.254V47h-1.61Zm3.738-8.4h-2.128v3.444h2.114c1.148 0 1.89-.672 1.89-1.722 0-1.064-.728-1.722-1.876-1.722ZM70.1 47h-1.666l3.668-9.8h1.918l3.654 9.8h-1.722l-.924-2.422H71.01L70.1 47Zm2.912-8.064-1.554 4.27h3.122l-1.568-4.27Z"/></g><g filter="url(#e)"><path stroke="#CBCBCB" d="M32 57h52"/></g><g filter="url(#f)"><path fill="#CBCBCB" d="m38.803 73.78 1.624.028c.084 1.148.98 1.918 2.352 1.918 1.162 0 2.002-.518 2.002-1.456 0-1.036-1.022-1.26-2.576-1.54-1.624-.28-3.164-.798-3.164-2.744 0-1.708 1.4-2.87 3.486-2.87 2.24 0 3.64 1.218 3.71 3.024h-1.61c-.126-.994-.91-1.666-2.1-1.666-1.106 0-1.876.476-1.876 1.4 0 1.008 1.008 1.218 2.548 1.484 1.624.294 3.206.812 3.192 2.744 0 1.764-1.47 2.982-3.626 2.982-2.436 0-3.906-1.344-3.962-3.304ZM56.95 72.1c0 2.87-1.946 4.984-4.76 4.984s-4.76-2.114-4.76-4.984 1.946-4.984 4.76-4.984 4.76 2.114 4.76 4.984Zm-7.868 0c0 2.072 1.246 3.57 3.108 3.57s3.108-1.498 3.108-3.57-1.246-3.57-3.108-3.57-3.108 1.498-3.108 3.57Zm13.537 4.984c-2.856 0-4.634-1.974-4.634-4.984 0-2.982 1.834-4.984 4.732-4.984 2.24 0 3.85 1.344 4.172 3.416h-1.666c-.322-1.232-1.246-2.002-2.576-2.002-1.862 0-3.01 1.47-3.01 3.57 0 2.086 1.12 3.57 2.968 3.57 1.358 0 2.296-.756 2.604-2.002h1.666c-.308 2.072-1.974 3.416-4.256 3.416Zm9.17-.084v-9.8h1.61V77h-1.61Zm3.404 0v-9.8h1.61V77h-1.61Z"/></g><circle cx="58" cy="57" r="35.5" stroke="#CBCBCB"/></g><defs><filter id="a" width="115" height="115" x=".5" y=".5" color-interpolation-filters="sRGB" filterUnits="userSpaceOnUse"><feFlood flood-opacity="0" result="BackgroundImageFix"/><feColorMatrix in="SourceAlpha" result="hardAlpha" values="0 0 0 0 0 0 0 0 0 0 0 0 0 0 0 0 0 0 127 0"/><feOffset dy="3"/><feGaussianBlur stdDeviation="2"/><feColorMatrix values="0 0 0 0 0 0 0 0 0 0 0 0 0 0 0 0 0 0 0.01 0"/><feBlend in2="BackgroundImageFix" result="effect1_dropShadow_31_169"/><feColorMatrix in="SourceAlpha" result="hardAlpha" values="0 0 0 0 0 0 0 0 0 0 0 0 0 0 0 0 0 0 127 0"/><feOffset dy="1"/><feGaussianBlur stdDeviation="6"/><feColorMatrix values="0 0 0 0 0 0 0 0 0 0 0 0 0 0 0 0 0 0 0.02 0"/><feBlend in2="effect1_dropShadow_31_169" result="effect2_dropShadow_31_169"/><feBlend in="SourceGraphic" in2="effect2_dropShadow_31_169" result="shape"/><feColorMatrix in="SourceAlpha" result="hardAlpha" values="0 0 0 0 0 0 0 0 0 0 0 0 0 0 0 0 0 0 127 0"/><feOffset dy="5"/><feGaussianBlur stdDeviation="5.5"/><feComposite in2="hardAlpha" k2="-1" k3="1" operator="arithmetic"/><feColorMatrix values="0 0 0 0 0.958789 0 0 0 0 0.958789 0 0 0 0 0.958789 0 0 0 1 0"/><feBlend in2="shape" result="effect3_innerShadow_31_169"/></filter><filter id="d" width="39.346" height="13.968" x="38.329" y="37.116" color-interpolation-filters="sRGB" filterUnits="userSpaceOnUse"><feFlood flood-opacity="0" result="BackgroundImageFix"/><feBlend in="SourceGraphic" in2="BackgroundImageFix" result="shape"/><feColorMatrix in="SourceAlpha" result="hardAlpha" values="0 0 0 0 0 0 0 0 0 0 0 0 0 0 0 0 0 0 127 0"/><feOffset dy="4"/><feGaussianBlur stdDeviation="2"/><feComposite in2="hardAlpha" k2="-1" k3="1" operator="arithmetic"/><feColorMatrix values="0 0 0 0 0 0 0 0 0 0 0 0 0 0 0 0 0 0 0.07 0"/><feBlend in2="shape" result="effect1_innerShadow_31_169"/></filter><filter id="e" width="52" height="5" x="32" y="56.5" color-interpolation-filters="sRGB" filterUnits="userSpaceOnUse"><feFlood flood-opacity="0" result="BackgroundImageFix"/><feBlend in="SourceGraphic" in2="BackgroundImageFix" result="shape"/><feColorMatrix in="SourceAlpha" result="hardAlpha" values="0 0 0 0 0 0 0 0 0 0 0 0 0 0 0 0 0 0 127 0"/><feOffset dy="4"/><feGaussianBlur stdDeviation="2"/><feComposite in2="hardAlpha" k2="-1" k3="1" operator="arithmetic"/><feColorMatrix values="0 0 0 0 0 0 0 0 0 0 0 0 0 0 0 0 0 0 0.07 0"/><feBlend in2="shape" result="effect1_innerShadow_31_169"/></filter><filter id="f" width="38" height="13.968" x="38.803" y="67.116" color-interpolation-filters="sRGB" filterUnits="userSpaceOnUse"><feFlood flood-opacity="0" result="BackgroundImageFix"/><feBlend in="SourceGraphic" in2="BackgroundImageFix" result="shape"/><feColorMatrix in="SourceAlpha" result="hardAlpha" values="0 0 0 0 0 0 0 0 0 0 0 0 0 0 0 0 0 0 127 0"/><feOffset dy="4"/><feGaussianBlur stdDeviation="2"/><feComposite in2="hardAlpha" k2="-1" k3="1" operator="arithmetic"/><feColorMatrix values="0 0 0 0 0 0 0 0 0 0 0 0 0 0 0 0 0 0 0.07 0"/><feBlend in2="shape" result="effect1_innerShadow_31_169"/></filter><linearGradient id="b" x1="65" x2="45.5" y1="-20" y2="102" gradientUnits="userSpaceOnUse"><stop stop-color="#E1E1E1" stop-opacity="0"/><stop offset="1" stop-color="#F1F1F1" stop-opacity=".72"/></linearGradient><linearGradient id="c" x1="59" x2="58" y1="9.5" y2="102" gradientUnits="userSpaceOnUse"><stop stop-color="#E9E9E9" stop-opacity="0"/><stop offset="1" stop-color="#ECECEC"/></linearGradient></defs></svg>