<svg xmlns="http://www.w3.org/2000/svg" width="116" height="116" fill="none"><g filter="url(#a)"><path fill="url(#b)" d="M13 57c0-24.853 20.147-45 45-45s45 20.147 45 45-20.147 45-45 45-45-20.147-45-45Z"/><path stroke="url(#c)" d="M13 57c0-24.853 20.147-45 45-45s45 20.147 45 45-20.147 45-45 45-45-20.147-45-45Z"/><g filter="url(#d)"><path fill="#CBCBCB" fill-rule="evenodd" d="M58 38c4.453 0 8.712-.832 12.63-2.348a40.532 40.532 0 0 0-1.513-3.68C66.08 25.54 62.08 22 58 22c-4.081 0-8.08 3.54-11.117 9.971a40.532 40.532 0 0 0-1.513 3.681A34.914 34.914 0 0 0 58 38Zm0-17a35.854 35.854 0 0 1 23.812 9C89.286 36.596 94 46.248 94 57c0 10.752-4.714 20.403-12.188 27A35.854 35.854 0 0 1 58 93a35.854 35.854 0 0 1-23.812-9C26.714 77.403 22 67.752 22 57c0-10.752 4.714-20.404 12.188-27A35.854 35.854 0 0 1 58 21Zm4.526 1.29A34.845 34.845 0 0 1 80.273 30a34.992 34.992 0 0 1-8.715 5.277c-2.226-6.218-5.383-10.858-9.032-12.987Zm18.52 8.368a35.995 35.995 0 0 1-9.16 5.567c1.081 3.237 1.917 6.87 2.45 10.775h-1.01c-.522-3.775-1.331-7.28-2.37-10.402A35.913 35.913 0 0 1 58 39c-4.567 0-8.936-.85-12.956-2.402-1.039 3.122-1.848 6.627-2.37 10.402h-1.01c.533-3.905 1.369-7.538 2.45-10.775a35.995 35.995 0 0 1-9.16-5.567C27.627 37.073 23 46.496 23 57s4.627 19.927 11.954 26.342a35.995 35.995 0 0 1 9.16-5.567c-.988-2.96-1.772-6.249-2.306-9.775h1.012c.522 3.395 1.278 6.558 2.224 9.402A35.913 35.913 0 0 1 58 75c4.567 0 8.936.85 12.956 2.402.946-2.844 1.702-6.007 2.224-9.402h1.012c-.534 3.526-1.318 6.816-2.307 9.775a35.995 35.995 0 0 1 9.161 5.567C88.373 76.927 93 67.504 93 57s-4.627-19.927-11.954-26.342ZM80.273 84a34.995 34.995 0 0 0-8.715-5.277c-2.226 6.218-5.383 10.858-9.032 12.987A34.845 34.845 0 0 0 80.273 84ZM58 92c4.081 0 8.08-3.54 11.117-9.971a40.532 40.532 0 0 0 1.512-3.681A34.914 34.914 0 0 0 58 76c-4.453 0-8.712.832-12.63 2.348a40.67 40.67 0 0 0 1.513 3.68C49.92 88.46 53.92 92 58 92Zm-4.526-.29A34.845 34.845 0 0 1 35.727 84a34.995 34.995 0 0 1 8.715-5.277c2.226 6.218 5.383 10.858 9.032 12.987ZM35.727 30a34.992 34.992 0 0 0 8.715 5.277c2.226-6.218 5.383-10.858 9.032-12.987A34.845 34.845 0 0 0 35.727 30Z" clip-rule="evenodd"/></g><g filter="url(#e)"><path fill="#CBCBCB" d="M27.28 62v-9.8h1.61V62h-1.61Zm3.012-3.22 1.624.028c.084 1.148.98 1.918 2.352 1.918 1.162 0 2.002-.518 2.002-1.456 0-1.036-1.022-1.26-2.576-1.54-1.624-.28-3.164-.798-3.164-2.744 0-1.708 1.4-2.87 3.486-2.87 2.24 0 3.64 1.218 3.71 3.024h-1.61c-.126-.994-.91-1.666-2.1-1.666-1.106 0-1.876.476-1.876 1.4 0 1.008 1.008 1.218 2.548 1.484 1.624.294 3.206.812 3.192 2.744 0 1.764-1.47 2.982-3.626 2.982-2.436 0-3.906-1.344-3.962-3.304ZM48.44 57.1c0 2.87-1.946 4.984-4.76 4.984s-4.76-2.114-4.76-4.984 1.946-4.984 4.76-4.984 4.76 2.114 4.76 4.984Zm-7.868 0c0 2.072 1.246 3.57 3.108 3.57s3.108-1.498 3.108-3.57-1.246-3.57-3.108-3.57-3.108 1.498-3.108 3.57ZM52.846 62v-1.246l3.766-3.206c.882-.742 1.54-1.428 1.54-2.366 0-1.12-.742-1.736-1.862-1.736s-1.876.756-1.876 1.974v.168H52.86v-.252c0-1.862 1.344-3.22 3.43-3.22 2.198 0 3.43 1.204 3.43 2.996 0 1.456-.882 2.366-2.072 3.36l-2.604 2.17h4.746V62h-6.944Zm7.433-8.442V52.2h7.028v1.036L62.715 62h-1.666l4.564-8.442h-5.334Zm7.489 3.766v-.448c0-2.842 1.582-4.76 3.864-4.76s3.864 1.918 3.864 4.76v.448c0 2.954-1.582 4.76-3.864 4.76s-3.864-1.806-3.864-4.76Zm6.16-.056v-.336c0-2.184-.924-3.458-2.296-3.458-1.372 0-2.296 1.274-2.296 3.458v.336c0 2.198.924 3.458 2.296 3.458 1.372 0 2.296-1.26 2.296-3.458Zm2.658.056v-.448c0-2.842 1.582-4.76 3.864-4.76s3.864 1.918 3.864 4.76v.448c0 2.954-1.582 4.76-3.864 4.76s-3.864-1.806-3.864-4.76Zm6.16-.056v-.336c0-2.184-.924-3.458-2.296-3.458-1.372 0-2.296 1.274-2.296 3.458v.336c0 2.198.924 3.458 2.296 3.458 1.372 0 2.296-1.26 2.296-3.458Zm4.436-4.074V52.2h1.526V62h-1.554v-6.72c-.14.084-.35.126-.616.126h-1.596v-1.33h1.526c.504 0 .714-.364.714-.882Z"/></g></g><defs><filter id="a" width="115" height="115" x=".5" y=".5" color-interpolation-filters="sRGB" filterUnits="userSpaceOnUse"><feFlood flood-opacity="0" result="BackgroundImageFix"/><feColorMatrix in="SourceAlpha" result="hardAlpha" values="0 0 0 0 0 0 0 0 0 0 0 0 0 0 0 0 0 0 127 0"/><feOffset dy="3"/><feGaussianBlur stdDeviation="2"/><feColorMatrix values="0 0 0 0 0 0 0 0 0 0 0 0 0 0 0 0 0 0 0.01 0"/><feBlend in2="BackgroundImageFix" result="effect1_dropShadow_31_354"/><feColorMatrix in="SourceAlpha" result="hardAlpha" values="0 0 0 0 0 0 0 0 0 0 0 0 0 0 0 0 0 0 127 0"/><feOffset dy="1"/><feGaussianBlur stdDeviation="6"/><feColorMatrix values="0 0 0 0 0 0 0 0 0 0 0 0 0 0 0 0 0 0 0.02 0"/><feBlend in2="effect1_dropShadow_31_354" result="effect2_dropShadow_31_354"/><feBlend in="SourceGraphic" in2="effect2_dropShadow_31_354" result="shape"/><feColorMatrix in="SourceAlpha" result="hardAlpha" values="0 0 0 0 0 0 0 0 0 0 0 0 0 0 0 0 0 0 127 0"/><feOffset dy="5"/><feGaussianBlur stdDeviation="5.5"/><feComposite in2="hardAlpha" k2="-1" k3="1" operator="arithmetic"/><feColorMatrix values="0 0 0 0 0.958789 0 0 0 0 0.958789 0 0 0 0 0.958789 0 0 0 1 0"/><feBlend in2="shape" result="effect3_innerShadow_31_354"/></filter><filter id="d" width="72" height="76" x="22" y="21" color-interpolation-filters="sRGB" filterUnits="userSpaceOnUse"><feFlood flood-opacity="0" result="BackgroundImageFix"/><feBlend in="SourceGraphic" in2="BackgroundImageFix" result="shape"/><feColorMatrix in="SourceAlpha" result="hardAlpha" values="0 0 0 0 0 0 0 0 0 0 0 0 0 0 0 0 0 0 127 0"/><feOffset dy="4"/><feGaussianBlur stdDeviation="2"/><feComposite in2="hardAlpha" k2="-1" k3="1" operator="arithmetic"/><feColorMatrix values="0 0 0 0 0 0 0 0 0 0 0 0 0 0 0 0 0 0 0.07 0"/><feBlend in2="shape" result="effect1_innerShadow_31_354"/></filter><filter id="e" width="61.429" height="13.968" x="27.28" y="52.116" color-interpolation-filters="sRGB" filterUnits="userSpaceOnUse"><feFlood flood-opacity="0" result="BackgroundImageFix"/><feBlend in="SourceGraphic" in2="BackgroundImageFix" result="shape"/><feColorMatrix in="SourceAlpha" result="hardAlpha" values="0 0 0 0 0 0 0 0 0 0 0 0 0 0 0 0 0 0 127 0"/><feOffset dy="4"/><feGaussianBlur stdDeviation="2"/><feComposite in2="hardAlpha" k2="-1" k3="1" operator="arithmetic"/><feColorMatrix values="0 0 0 0 0 0 0 0 0 0 0 0 0 0 0 0 0 0 0.07 0"/><feBlend in2="shape" result="effect1_innerShadow_31_354"/></filter><linearGradient id="b" x1="65" x2="45.5" y1="-20" y2="102" gradientUnits="userSpaceOnUse"><stop stop-color="#E1E1E1" stop-opacity="0"/><stop offset="1" stop-color="#F1F1F1" stop-opacity=".72"/></linearGradient><linearGradient id="c" x1="59" x2="58" y1="9.5" y2="102" gradientUnits="userSpaceOnUse"><stop stop-color="#E9E9E9" stop-opacity="0"/><stop offset="1" stop-color="#ECECEC"/></linearGradient></defs></svg>