<?xml version="1.0" encoding="UTF-8"?> <svg xmlns="http://www.w3.org/2000/svg" width="113" height="38" viewBox="0 0 113 38" fill="none"><path d="M13.8093 18.4474C15.9703 17.2352 17.2879 14.7053 17.2879 11.5956V9.27651C17.2879 3.68954 13.8093 0 8.5386 0C3.42604 0 0 3.68954 0 9.27651V35.4193C0 36.6843 0.896026 37.5803 2.10828 37.5803H9.11829C14.4418 37.5803 18.0785 33.8907 18.0785 28.1984V25.774C18.0785 22.4535 16.4446 19.7654 13.8092 18.4477L13.8093 18.4474ZM4.74372 9.0128C4.74372 6.16653 6.16681 4.42722 8.5386 4.42722C11.0686 4.42722 12.5444 6.16655 12.5444 9.0128V11.9644C12.5444 14.8633 11.0159 16.6026 8.5386 16.6026H4.74372V9.0128ZM13.2295 28.4616C13.2295 31.4133 11.701 33.2054 9.01302 33.2054H4.74372V20.9247H9.01302C11.7012 20.9247 13.2295 22.7167 13.2295 25.7209V28.4616Z" fill="#FF9B41"></path><path d="M32.5643 37.9497C38.0459 37.9497 41.8408 33.9439 41.8408 28.4097V9.54066C41.8408 4.00647 38.0459 0.000663757 32.5643 0.000663757C27.0827 0.000663757 23.2352 4.00648 23.2352 9.90951V28.0407C23.2352 33.9439 27.0829 37.9495 32.5643 37.9495V37.9497ZM32.5643 33.5223C29.8762 33.5223 28.0315 31.5194 28.0315 28.2516V9.69881C28.0315 6.4309 29.8763 4.42811 32.5643 4.42811C35.2524 4.42811 37.0443 6.43096 37.0443 9.32996V28.6207C37.0443 31.5195 35.2523 33.5225 32.5643 33.5225V33.5223Z" fill="#FF9B41"></path><path d="M66.5141 11.492V1.21407C66.5141 0.792419 66.2506 0.528885 65.7762 0.528885H62.4558C61.9814 0.528885 61.7179 0.792419 61.7179 1.21407V11.7027C61.7179 14.4962 60.0312 16.5518 57.5539 16.5518C55.0766 16.5518 53.39 14.4962 53.39 11.7027V1.21407C53.39 0.792419 53.1264 0.528885 52.6521 0.528885H49.3316C48.8572 0.528885 48.5937 0.792419 48.5937 1.21407V11.492C48.5937 14.7071 49.9114 17.1315 52.2832 18.7129C49.9114 20.3468 48.5937 22.7713 48.5937 25.9864V36.6859C48.5937 37.1603 48.8572 37.4238 49.3316 37.4238H52.6521C53.1264 37.4238 53.39 37.1603 53.39 36.6859V25.7757C53.39 22.9822 55.0766 20.9794 57.5539 20.9794C60.0312 20.9794 61.7179 22.9823 61.7179 25.7757V36.6859C61.7179 37.1603 61.9814 37.4238 62.4558 37.4238H65.7762C66.2506 37.4238 66.5141 37.1603 66.5141 36.6859V25.9864C66.5141 22.7713 65.1965 20.3469 62.8246 18.7129C65.1965 17.1317 66.5141 14.7071 66.5141 11.492Z" fill="#FF9B41"></path><path d="M91.1516 11.492V1.21407C91.1516 0.792419 90.888 0.528885 90.4137 0.528885H87.0932C86.6188 0.528885 86.3553 0.792419 86.3553 1.21407V11.7027C86.3553 14.4962 84.6687 16.5518 82.1913 16.5518C79.714 16.5518 78.0274 14.4962 78.0274 11.7027V1.21407C78.0274 0.792419 77.7639 0.528885 77.2895 0.528885H73.969C73.4947 0.528885 73.2311 0.792419 73.2311 1.21407V11.492C73.2311 14.7071 74.5488 17.1315 76.9207 18.7129C74.5488 20.3468 73.2311 22.7713 73.2311 25.9864V36.6859C73.2311 37.1603 73.4947 37.4238 73.969 37.4238H77.2895C77.7639 37.4238 78.0274 37.1603 78.0274 36.6859V25.7757C78.0274 22.9822 79.714 20.9794 82.1913 20.9794C84.6687 20.9794 86.3553 22.9823 86.3553 25.7757V36.6859C86.3553 37.1603 86.6188 37.4238 87.0932 37.4238H90.4137C90.888 37.4238 91.1516 37.1603 91.1516 36.6859V25.9864C91.1516 22.7713 89.8339 20.3469 87.462 18.7129C89.8339 17.1317 91.1516 14.7071 91.1516 11.492Z" fill="#FF9B41"></path><path d="M107.202 33.1534C104.778 33.1534 103.038 31.1506 103.038 28.1462V1.21275C103.038 0.791095 102.775 0.527561 102.3 0.527561H98.927C98.5053 0.527561 98.2418 0.791095 98.2418 1.21275V28.3048C98.2418 33.5755 101.562 37.5813 106.939 37.5813H112.262C112.736 37.5813 113 37.3178 113 36.8961V33.8919C113 33.4176 112.736 33.154 112.262 33.154L107.202 33.1534Z" fill="#FF9B41"></path></svg> 