<?xml version="1.0" encoding="UTF-8"?> <svg xmlns="http://www.w3.org/2000/svg" width="150" height="150" viewBox="0 0 150 150" fill="none"><path fill-rule="evenodd" clip-rule="evenodd" d="M44.5993 0H104.502C120.01 0 125.635 1.61527 131.303 4.647C136.973 7.67873 141.423 12.1283 144.455 17.7983C147.486 23.4683 149.102 29.0914 149.102 44.5993V104.502C149.102 120.01 147.486 125.635 144.455 131.303C141.423 136.973 136.973 141.423 131.303 144.455C125.633 147.486 120.01 149.102 104.502 149.102H44.5993C29.0913 149.102 23.4669 147.486 17.7983 144.455C12.1283 141.423 7.6787 136.973 4.64697 131.303C1.61524 125.635 -3.05176e-05 120.01 -3.05176e-05 104.502V44.5993C-3.05176e-05 29.0914 1.61524 23.4669 4.64697 17.7983C7.6787 12.1283 12.1283 7.67873 17.7983 4.647C23.4669 1.61527 29.0913 0 44.5993 0Z" fill="url(#paint0_linear_202_2092)"></path><path d="M3.86554 80.5205V81.9273H21.9413L22.9878 80.5205H3.86554Z" fill="#D50029"></path><path d="M3.86554 77.8877V79.2945H23.8866L24.933 77.8877H3.86554Z" fill="#D50029"></path><path d="M3.86554 83.1548V84.5616H19.9961L21.0426 83.1548H3.86554Z" fill="#D50029"></path><path d="M127.25 80.5205L126.203 81.9273H145.236V80.5205H127.25Z" fill="#D50029"></path><path d="M125.305 83.1548L124.258 84.5616H145.236V83.1548H125.305Z" fill="#D50029"></path><path d="M129.195 77.8877L128.149 79.2945H145.236V77.8877H129.195Z" fill="#D50029"></path><path d="M22.39 84.5613L31.4575 72.2314H42.7092C43.9655 72.2314 43.9365 72.7105 43.3373 73.5485C42.7092 74.3561 41.6613 75.8223 41.0332 76.6603C40.7046 77.0786 40.1358 77.8876 42.0507 77.8876H57.1334C55.8771 79.594 51.8071 84.5613 44.5039 84.5613H22.39Z" fill="#D50029"></path><path d="M74.3408 77.8877L69.4329 84.5614H56.4458L61.3538 77.8877H74.3408Z" fill="#D50029"></path><path d="M93.1041 77.8877L88.1976 84.5614H75.2092L80.1475 77.8877H93.1041Z" fill="#D50029"></path><path d="M97.3245 77.8877C97.3245 77.8877 96.3968 79.1744 95.9177 79.8025C94.301 81.9866 95.7382 84.5614 101.064 84.5614H121.893L126.801 77.8877H97.3245V77.8877Z" fill="#D50029"></path><path d="M28.7336 64.5708L24.215 70.7061H48.8444C50.0717 70.7061 50.0717 71.1851 49.4436 71.9927C48.8444 72.8307 47.7979 74.2969 47.1698 75.1349C46.8412 75.5836 46.2724 76.3623 48.1872 76.3623H58.2419C58.2419 76.3623 59.8876 74.1478 61.235 72.3227C63.0905 69.8087 61.3841 64.5722 54.7712 64.5722H28.7336V64.5708Z" fill="#D50029"></path><path d="M94.2113 76.3609H62.49L71.1696 64.5708H84.1263L79.159 71.3342H84.9643L89.933 64.5708H102.891L94.2113 76.3609Z" fill="#D50029"></path><path d="M120.876 64.5708L112.197 76.3609H98.4317L107.14 64.5708H120.876Z" fill="#D50029"></path><defs><linearGradient id="paint0_linear_202_2092" x1="-3.05176e-05" y1="74.5508" x2="149.102" y2="74.5508" gradientUnits="userSpaceOnUse"><stop stop-color="#FFDA01"></stop><stop offset="1" stop-color="#FFBC01"></stop></linearGradient></defs></svg> 